<mxfile host="app.diagrams.net" modified="2023-06-28T07:19:45.115Z" agent="Mozilla/5.0 (Windows NT 10.0; Win64; x64) AppleWebKit/537.36 (KHTML, like Gecko) Chrome/114.0.0.0 Safari/537.36" etag="nQo21gvUpV8w9a0C5JLM" version="21.4.0" type="github">
  <diagram name="Page-1" id="_VYA6GNSWTRO3mJRv7M0">
    <mxGraphModel dx="794" dy="462" grid="1" gridSize="10" guides="1" tooltips="1" connect="1" arrows="1" fold="1" page="1" pageScale="1" pageWidth="850" pageHeight="1100" math="0" shadow="0">
      <root>
        <mxCell id="0" />
        <mxCell id="1" parent="0" />
        <mxCell id="jWgHVI19yJFmfZQgVaKP-4" value="" style="edgeStyle=orthogonalEdgeStyle;rounded=0;orthogonalLoop=1;jettySize=auto;html=1;" edge="1" parent="1" source="jWgHVI19yJFmfZQgVaKP-1" target="jWgHVI19yJFmfZQgVaKP-3">
          <mxGeometry relative="1" as="geometry" />
        </mxCell>
        <mxCell id="jWgHVI19yJFmfZQgVaKP-1" value="" style="strokeWidth=2;html=1;shape=mxgraph.flowchart.start_2;whiteSpace=wrap;" vertex="1" parent="1">
          <mxGeometry x="340" y="10" width="30" height="30" as="geometry" />
        </mxCell>
        <mxCell id="jWgHVI19yJFmfZQgVaKP-6" style="edgeStyle=orthogonalEdgeStyle;rounded=0;orthogonalLoop=1;jettySize=auto;html=1;entryX=0.5;entryY=0;entryDx=0;entryDy=0;" edge="1" parent="1" source="jWgHVI19yJFmfZQgVaKP-3" target="jWgHVI19yJFmfZQgVaKP-5">
          <mxGeometry relative="1" as="geometry" />
        </mxCell>
        <mxCell id="jWgHVI19yJFmfZQgVaKP-3" value="Ingram Price Request Call&amp;nbsp;" style="whiteSpace=wrap;html=1;strokeWidth=2;" vertex="1" parent="1">
          <mxGeometry x="295" y="70" width="120" height="60" as="geometry" />
        </mxCell>
        <mxCell id="jWgHVI19yJFmfZQgVaKP-8" style="edgeStyle=orthogonalEdgeStyle;rounded=0;orthogonalLoop=1;jettySize=auto;html=1;entryX=0.5;entryY=0;entryDx=0;entryDy=0;" edge="1" parent="1" source="jWgHVI19yJFmfZQgVaKP-5" target="jWgHVI19yJFmfZQgVaKP-7">
          <mxGeometry relative="1" as="geometry" />
        </mxCell>
        <mxCell id="jWgHVI19yJFmfZQgVaKP-5" value="Parse Request &amp;amp;&amp;nbsp;&amp;nbsp;&lt;br&gt;Identify Funder&amp;nbsp;" style="whiteSpace=wrap;html=1;strokeWidth=2;" vertex="1" parent="1">
          <mxGeometry x="295" y="180" width="120" height="50" as="geometry" />
        </mxCell>
        <mxCell id="jWgHVI19yJFmfZQgVaKP-10" style="edgeStyle=orthogonalEdgeStyle;rounded=0;orthogonalLoop=1;jettySize=auto;html=1;entryX=0.5;entryY=0;entryDx=0;entryDy=0;entryPerimeter=0;" edge="1" parent="1" source="jWgHVI19yJFmfZQgVaKP-7" target="jWgHVI19yJFmfZQgVaKP-9">
          <mxGeometry relative="1" as="geometry" />
        </mxCell>
        <mxCell id="jWgHVI19yJFmfZQgVaKP-7" value="Generic Integration Component For Auth Call" style="whiteSpace=wrap;html=1;strokeWidth=2;" vertex="1" parent="1">
          <mxGeometry x="295" y="260" width="120" height="60" as="geometry" />
        </mxCell>
        <object label="" No="" id="jWgHVI19yJFmfZQgVaKP-11">
          <mxCell style="edgeStyle=orthogonalEdgeStyle;rounded=0;orthogonalLoop=1;jettySize=auto;html=1;" edge="1" parent="1" source="jWgHVI19yJFmfZQgVaKP-9">
            <mxGeometry relative="1" as="geometry">
              <mxPoint x="190" y="120" as="targetPoint" />
            </mxGeometry>
          </mxCell>
        </object>
        <mxCell id="jWgHVI19yJFmfZQgVaKP-9" value="Auth success?&amp;nbsp;" style="strokeWidth=2;html=1;shape=mxgraph.flowchart.decision;whiteSpace=wrap;" vertex="1" parent="1">
          <mxGeometry x="305" y="350" width="100" height="100" as="geometry" />
        </mxCell>
        <mxCell id="jWgHVI19yJFmfZQgVaKP-12" value="No" style="strokeWidth=2;html=1;shape=mxgraph.flowchart.terminator;whiteSpace=wrap;" vertex="1" parent="1">
          <mxGeometry x="140" y="60" width="100" height="60" as="geometry" />
        </mxCell>
        <mxCell id="jWgHVI19yJFmfZQgVaKP-14" value="No" style="text;html=1;align=center;verticalAlign=middle;resizable=0;points=[];autosize=1;strokeColor=none;fillColor=none;" vertex="1" parent="1">
          <mxGeometry x="230" y="410" width="40" height="30" as="geometry" />
        </mxCell>
      </root>
    </mxGraphModel>
  </diagram>
</mxfile>
